<svg width="72" height="72" viewBox="0 0 72 72" fill="none" xmlns="http://www.w3.org/2000/svg">
<path d="M63.3394 38.2188L60.0665 48.7914L54.952 51.6966C54.3155 52.0298 53.8374 52.6022 53.6229 53.2879C53.4084 53.9735 53.475 54.7163 53.8082 55.3529C54.1414 55.9894 54.7138 56.4675 55.3994 56.682C56.0851 56.8965 56.8279 56.8298 57.4644 56.4966L62.2947 54.1585M57.4644 56.4878L51.4935 59.4145L42.8497 59.4423C42.3622 59.4396 41.8901 59.6131 41.5205 59.9309C41.1509 60.2488 40.9086 60.6895 40.8383 61.1719C40.768 61.6543 40.8744 62.1459 41.138 62.556C41.4015 62.9661 41.8044 63.2671 42.2724 63.4036L46.0619 64.5404C48.5322 65.2845 51.1268 65.5249 53.6917 65.2473C56.2567 64.9696 58.7397 64.1797 60.9936 62.9244C63.2475 61.669 65.2264 59.9738 66.8127 57.9392C68.3991 55.9046 69.5607 53.5722 70.2286 51.0802L70.2842 50.8731M8.15074 38.2188L11.4248 48.7914L16.5394 51.6966C17.1759 52.03 17.6539 52.6025 17.8683 53.2883C18.0827 53.9741 18.0159 54.717 17.6825 55.3535C17.3492 55.99 16.7767 56.468 16.0909 56.6824C15.4051 56.8968 14.6622 56.83 14.0257 56.4966L9.19537 54.1585M14.0257 56.4878L19.9979 59.4145L25.2425 59.4423C25.5792 59.4427 25.9105 59.5271 26.2063 59.688C26.502 59.8489 26.7529 60.0811 26.9362 60.3636C27.1194 60.6461 27.2291 60.9699 27.2554 61.3055C27.2817 61.6412 27.2237 61.9781 27.0867 62.2857C24.837 67.3686 14.9427 64.7716 13.6341 64.3244C10.6441 63.3006 7.95171 61.557 5.79431 59.2474C3.63691 56.9378 2.08068 54.133 1.26274 51.0802L1 50.1" stroke="#4D7AE3" stroke-width="2" stroke-linecap="round" stroke-linejoin="round"/>
<path d="M38.5001 40.1999C38.2001 40.1999 38.0001 40.1999 37.7001 40.2999C35.4001 40.7999 34.1001 42.1999 34.2001 44.2999C34.2001 45.4999 35.0001 46.6999 36.1001 47.1999L37.9001 48.0999L37.7001 50.6999C37.7001 50.9999 37.8001 51.2999 38.1001 51.4999C38.3001 51.6999 38.5001 51.6999 38.7001 51.6999C38.8001 51.6999 38.9001 51.6999 38.9001 51.6999C42.7001 50.7999 44.4001 48.3999 45.2001 46.6999C45.8001 45.3999 45.4001 43.7999 44.4001 42.8999C41.8001 40.5999 39.4001 40.2999 38.5001 40.1999ZM43.4001 45.8999C42.9001 46.9999 41.9001 48.4999 39.8001 49.3999L39.9001 47.4999C39.9001 47.0999 39.7001 46.6999 39.3001 46.4999L36.9001 45.3999C36.4001 45.1999 36.1001 44.6999 36.1001 44.1999C36.1001 43.4999 36.3001 42.5999 38.0001 42.1999C38.1001 42.1999 38.2001 42.1999 38.2001 42.1999C38.2001 42.1999 38.2001 42.1999 38.3001 42.1999C39.0001 42.1999 40.9001 42.4999 43.0001 44.2999C43.5001 44.6999 43.6001 45.3999 43.4001 45.8999Z" fill="#4D7AE3"/>
<path d="M47.1001 38.8999C48.0001 38.8999 48.9001 39.2999 49.5001 39.8999L49.2001 42.7999L48.0001 41.3999C47.8001 41.0999 47.4001 40.8999 47.0001 40.8999H45.5001C44.8001 40.8999 44.2001 40.6999 43.6001 40.2999L41.4001 38.7999C41.1001 38.5999 40.8001 38.5999 40.4001 38.5999C39.3001 38.6999 37.1001 38.8999 35.0001 38.2999C34.5001 38.0999 34.0001 37.6999 33.7001 37.1999C33.4001 36.6999 33.4001 36.0999 33.6001 35.4999C34.5001 32.9999 36.7001 31.6999 39.5001 32.0999L39.6001 31.9999C40.2001 31.2999 41.4001 30.1999 43.4001 29.7999L46.0001 31.7999C43.4001 31.2999 41.9001 32.4999 41.1001 33.2999C40.6001 33.7999 39.9001 34.0999 39.2001 33.9999C37.3001 33.6999 36.1001 34.4999 35.5001 36.0999V36.2999C35.5001 36.2999 35.5001 36.3999 35.6001 36.3999C37.4001 36.8999 39.3001 36.6999 40.2001 36.5999C41.1001 36.4999 41.9001 36.6999 42.6001 37.1999L44.8001 38.6999C45.0001 38.7999 45.3001 38.8999 45.6001 38.8999H47.1001Z" fill="#4D7AE3"/>
<path d="M25.9001 43.9999C25.7001 43.6999 25.0001 43.6999 24.4001 43.7999L24.0001 41.8999C25.1001 41.6999 26.5001 41.6999 27.4001 42.6999C28.4001 43.8999 28.1001 45.7999 26.7001 48.5999L25.5001 46.5999C26.1944 44.8642 25.9848 44.2583 25.9173 44.0631C25.907 44.0334 25.9001 44.0132 25.9001 43.9999Z" fill="#4D7AE3"/>
<path fill-rule="evenodd" clip-rule="evenodd" d="M28.4001 33.9999L27 31.4999L25.9062 33.6999L26.6001 34.8999C27.2001 36.1999 27.2001 36.7999 27.0001 36.8999C26.9001 37.0999 26.3001 37.4017 26.1001 37.3017C25.6001 37.2017 24.5001 36.8017 24.4001 37.3017C24.2001 37.9017 24 38.4999 24.0001 38.9999H26.7001C27.3001 38.9999 28.1001 38.7999 28.7001 38.0999C29.4001 37.1999 29.3001 35.7999 28.4001 33.9999Z" fill="#4D7AE3"/>
<path d="M33.5001 28.2999C33.3001 29.6999 32.9001 31.2999 31.8001 31.5999C30.8001 31.7999 29.6001 31.0999 29.0001 30.5999L27 31.4999C28 32.3999 30.0001 33.6999 31.4001 33.6999C31.9001 33.6999 32.3001 33.5999 32.8001 33.3999C34.4001 32.6999 35.3001 30.8999 35.5001 27.9999L33.5001 28.2999Z" fill="#4D7AE3"/>
<path fill-rule="evenodd" clip-rule="evenodd" d="M37.1078 26.0124V21.0612V19.8612V19.6612C37.1078 19.1612 37.0078 18.5612 36.9078 17.9612C37.0533 17.982 37.2117 18.0071 37.3804 18.0338L37.3804 18.0339C38.0235 18.1357 38.8157 18.2612 39.6078 18.2612C41.4078 18.2612 43.3078 17.9612 44.9078 16.6612C48.5078 13.8612 48.3078 7.86124 48.2078 7.56124C48.2078 7.16124 47.9078 6.76124 47.5078 6.66124C47.3078 6.56124 41.4078 4.76124 37.9078 7.56124C36.1078 8.96124 35.3078 11.2612 34.9078 13.1612C34.8578 13.1112 34.8078 13.0363 34.7578 12.9613L34.7578 12.9612L34.7578 12.9612C34.7078 12.8862 34.6578 12.8112 34.6078 12.7612C31.2078 9.46124 25.2078 10.4612 24.9078 10.5612C24.5078 10.6612 24.1078 10.9612 24.1078 11.3612C24.1078 11.3855 24.102 11.4469 24.093 11.541L24.093 11.541C23.9905 12.6128 23.4824 17.9278 26.6078 20.9612C28.7078 22.9612 31.7078 23.3612 33.9078 23.3612C34.4078 23.3612 34.9078 23.3612 35.2078 23.2612V26.0567C27.805 26.7105 22 32.9273 22 40.4999C22 48.5081 28.4919 54.9999 36.5 54.9999C44.5081 54.9999 51 48.5081 51 40.4999C51 32.6954 44.8341 26.3311 37.1078 26.0124ZM46.3078 8.26124C44.8078 7.96124 41.3078 7.36124 39.2078 9.06124C37.5078 10.3612 36.9078 12.6612 36.7078 14.3612L41.0078 10.9612C41.4078 10.6612 42.1078 10.7612 42.4078 11.1612C42.7078 11.5612 42.6078 12.2612 42.2078 12.5612L37.9078 15.9612C39.6078 16.1612 42.0078 16.2612 43.7078 14.9612C45.9078 13.2612 46.2078 9.76124 46.3078 8.26124ZM27.9078 19.5612C25.9078 17.5612 25.8078 13.9612 25.9078 12.4612C32 10.4999 34.6078 16.9999 34.6078 16.9999C34.6078 16.9999 35.0078 19.1612 35.0078 20.0612L29.8078 14.8612C29.4078 14.4612 28.8078 14.4612 28.4078 14.8612C28.0078 15.2612 28.0078 15.8612 28.4078 16.2612L33.6078 21.4612C32.0078 21.4612 29.5078 21.1612 27.9078 19.5612ZM49 40.4999C49 47.4035 43.4036 52.9999 36.5 52.9999C29.5964 52.9999 24 47.4035 24 40.4999C24 33.5964 29.5964 27.9999 36.5 27.9999C43.4036 27.9999 49 33.5964 49 40.4999Z" fill="#4D7AE3"/>
</svg>
