<svg width="32" height="32" viewBox="0 0 32 32" fill="none" xmlns="http://www.w3.org/2000/svg">
<path d="M16 5.33331C10.1094 5.33331 5.33334 10.1111 5.33334 16C5.33334 21.8923 10.1094 26.6666 16 26.6666C21.8906 26.6666 26.6667 21.8923 26.6667 16C26.6667 10.1111 21.8906 5.33331 16 5.33331ZM16 24.6021C11.2459 24.6021 7.39786 20.7556 7.39786 16C7.39786 11.2475 11.2461 7.39783 16 7.39783C20.7523 7.39783 24.6022 11.246 24.6022 16C24.6022 20.754 20.7557 24.6021 16 24.6021ZM20.6127 13.6258C20.6127 16.5097 17.4978 16.5541 17.4978 17.6199V17.8925C17.4978 18.1775 17.2667 18.4086 16.9816 18.4086H15.0183C14.7333 18.4086 14.5022 18.1775 14.5022 17.8925V17.52C14.5022 15.9826 15.6678 15.368 16.5486 14.8742C17.3039 14.4507 17.7668 14.1627 17.7668 13.602C17.7668 12.8602 16.8207 12.3678 16.0557 12.3678C15.0583 12.3678 14.5979 12.84 13.9507 13.6568C13.7762 13.8771 13.4578 13.918 13.2339 13.7482L12.0371 12.8408C11.8175 12.6742 11.7683 12.3648 11.9234 12.137C12.9396 10.6448 14.234 9.80643 16.2492 9.80643C18.3598 9.80643 20.6127 11.4539 20.6127 13.6258ZM17.8065 20.8172C17.8065 21.8133 16.9961 22.6236 16 22.6236C15.0039 22.6236 14.1936 21.8133 14.1936 20.8172C14.1936 19.8211 15.0039 19.0107 16 19.0107C16.9961 19.0107 17.8065 19.8211 17.8065 20.8172Z" fill="#575757"/>
</svg>
