<svg width="72" height="72" viewBox="0 0 72 72" fill="none" xmlns="http://www.w3.org/2000/svg">
<path fill-rule="evenodd" clip-rule="evenodd" d="M37 66.3333C53.2004 66.3333 66.3333 53.2004 66.3333 37C66.3333 20.7996 53.2004 7.66667 37 7.66667C20.7996 7.66667 7.66667 20.7996 7.66667 37C7.66667 53.2004 20.7996 66.3333 37 66.3333ZM37 69C54.6731 69 69 54.6731 69 37C69 19.3269 54.6731 5 37 5C19.3269 5 5 19.3269 5 37C5 54.6731 19.3269 69 37 69Z" fill="#49BC99"/>
<path fill-rule="evenodd" clip-rule="evenodd" d="M52.1114 25.3398C52.6601 25.8309 52.7068 26.6738 52.2158 27.2225L33.1229 48.5559C32.87 48.8385 32.5087 49 32.1294 49C31.7501 49 31.3888 48.8385 31.1358 48.5559L21.7842 38.1069C21.2932 37.5582 21.3399 36.7152 21.8886 36.2242C22.4373 35.7331 23.2802 35.7798 23.7713 36.3285L32.1294 45.6674L50.2287 25.4441C50.7198 24.8954 51.5627 24.8487 52.1114 25.3398Z" fill="#49BC99"/>
</svg>
