<svg width="72" height="72" viewBox="0 0 72 72" fill="none" xmlns="http://www.w3.org/2000/svg">
<path d="M57.8421 44.5421V33.1737H51M13.6316 45.8053V33.1737H23" stroke="#4D7AE3" stroke-width="2" stroke-linecap="round" stroke-linejoin="round"/>
<path d="M44.8346 19.0977L59.4861 19.5157C59.4014 19.3729 59.3023 19.2391 59.1903 19.1165L47.54 6.32103C47.314 6.07547 47.0413 5.87735 46.738 5.73823L44.8346 19.0977Z" fill="#4D7AE3"/>
<path d="M41.9898 25.6397L44.8372 5.63896C44.5167 5.75027 44.2223 5.92581 43.972 6.15484L22.5207 25.6967C22.2668 25.9278 22.0629 26.2084 21.9216 26.5213L41.9898 25.6397Z" fill="#4D7AE3"/>
<path d="M44.5662 20.9849L43.7547 26.6852C43.7246 26.9013 43.6208 27.1005 43.4607 27.2488C43.3007 27.3972 43.0943 27.4857 42.8765 27.4993L42.8588 27.5004L37.2233 27.7479L36.2399 42.8523C36.7373 42.7795 37.2015 42.5592 37.5724 42.2199L59.0238 22.6793C59.3954 22.3415 59.6575 21.9003 59.7764 21.4124L44.5662 20.9849Z" fill="#4D7AE3"/>
<path d="M35.3186 27.83L21.8461 28.4168C21.9581 28.7291 22.1304 29.0164 22.3531 29.2623L34.0032 42.054C34.115 42.1754 34.238 42.2859 34.3706 42.3842L35.3186 27.83Z" fill="#4D7AE3"/>
<path d="M27.5264 60.5956H40.4927" stroke="#4D7AE3" stroke-width="2" stroke-linecap="round" stroke-linejoin="round"/>
<path d="M63.3394 38.2188L60.0665 48.7914L54.952 51.6966C54.3155 52.0298 53.8374 52.6022 53.6229 53.2879C53.4084 53.9735 53.475 54.7163 53.8082 55.3529C54.1414 55.9894 54.7137 56.4675 55.3994 56.682C56.0851 56.8965 56.8279 56.8298 57.4644 56.4966L62.2947 54.1585M57.4644 56.4878L51.4935 59.4145L42.8497 59.4423C42.3622 59.4396 41.8901 59.6131 41.5205 59.9309C41.1509 60.2488 40.9086 60.6895 40.8383 61.1719C40.768 61.6543 40.8744 62.1459 41.138 62.556C41.4015 62.9661 41.8044 63.2671 42.2724 63.4036L46.0619 64.5404C48.5322 65.2845 51.1268 65.5249 53.6917 65.2473C56.2567 64.9697 58.7397 64.1797 60.9936 62.9244C63.2475 61.669 65.2264 59.9738 66.8127 57.9392C68.3991 55.9046 69.5607 53.5722 70.2286 51.0802L70.2842 50.8731M8.15074 38.2188L11.4248 48.7914L16.5394 51.6966C17.1759 52.03 17.6539 52.6025 17.8683 53.2883C18.0827 53.9741 18.0159 54.717 17.6825 55.3535C17.3492 55.99 16.7767 56.468 16.0909 56.6824C15.4051 56.8968 14.6622 56.83 14.0257 56.4966L9.19537 54.1585M14.0257 56.4878L19.9979 59.4145L25.2425 59.4423C25.5792 59.4427 25.9105 59.5271 26.2063 59.688C26.502 59.8489 26.7529 60.0811 26.9362 60.3636C27.1194 60.6461 27.2291 60.9699 27.2554 61.3055C27.2817 61.6412 27.2237 61.9781 27.0867 62.2857C24.837 67.3687 14.9427 64.7716 13.6341 64.3244C10.6441 63.3006 7.95171 61.557 5.79431 59.2474C3.63691 56.9378 2.08068 54.133 1.26274 51.0802L1 50.1" stroke="#4D7AE3" stroke-width="2" stroke-linecap="round" stroke-linejoin="round"/>
<path d="M22.4737 38.2263H49" stroke="#4D7AE3" stroke-width="2" stroke-linecap="round"/>
</svg>
